<svg width="1000" height="240" viewBox="0 0 1000 240" fill="none" xmlns="http://www.w3.org/2000/svg" role="img" aria-labelledby="title desc">
  <title id="title">Luiz Filipe</title>
  <desc id="desc">Profile banner for Luiz Filipe with the technologies Typescript, Node.js, React, Docker, AWS, AI and Postgres.</desc>
  <defs>
    <linearGradient id="bg" x1="0" y1="0" x2="1000" y2="240" gradientUnits="userSpaceOnUse">
      <stop stop-color="#0D1117"/>
      <stop offset="0.56" stop-color="#111827"/>
      <stop offset="1" stop-color="#0A66C2"/>
    </linearGradient>
    <radialGradient id="glowA" cx="0" cy="0" r="1" gradientUnits="userSpaceOnUse" gradientTransform="translate(810 30) rotate(128) scale(310 210)">
      <stop stop-color="#60A5FA" stop-opacity="0.34"/>
      <stop offset="1" stop-color="#60A5FA" stop-opacity="0"/>
    </radialGradient>
    <radialGradient id="glowB" cx="0" cy="0" r="1" gradientUnits="userSpaceOnUse" gradientTransform="translate(160 230) rotate(-35) scale(300 170)">
      <stop stop-color="#0A66C2" stop-opacity="0.26"/>
      <stop offset="1" stop-color="#0A66C2" stop-opacity="0"/>
    </radialGradient>
    <pattern id="grid" width="36" height="36" patternUnits="userSpaceOnUse">
      <path d="M36 0H0V36" stroke="#E2E8F0" stroke-opacity="0.06" stroke-width="1"/>
    </pattern>
  </defs>

  <rect width="1000" height="240" rx="22" fill="url(#bg)"/>
  <rect width="1000" height="240" rx="22" fill="url(#grid)"/>
  <rect width="1000" height="240" rx="22" fill="url(#glowA)"/>
  <rect width="1000" height="240" rx="22" fill="url(#glowB)"/>

  <path d="M690 46C777 60 817 92 875 69C911 55 939 25 985 37" stroke="#93C5FD" stroke-opacity="0.28" stroke-width="2"/>
  <path d="M0 183C92 150 143 178 216 151C290 123 316 80 405 98" stroke="#60A5FA" stroke-opacity="0.22" stroke-width="2"/>

  <g opacity="0.95">
    <text x="70" y="98" fill="#F8FAFC" font-family="-apple-system, BlinkMacSystemFont, Segoe UI, Helvetica, Arial, sans-serif" font-size="54" font-weight="800">Luiz Filipe</text>
    <text x="72" y="146" fill="#BFDBFE" font-family="-apple-system, BlinkMacSystemFont, Segoe UI, Helvetica, Arial, sans-serif" font-size="24" font-weight="650">Typescript • Node.js • React • Docker • AWS • AI • Postgres</text>
  </g>
</svg>
